<svg xmlns="http://www.w3.org/2000/svg" width="215.94" height="119.532" viewBox="0 0 215.94 119.532">
  <metadata><?xpacket begin="﻿" id="W5M0MpCehiHzreSzNTczkc9d"?>
<x:xmpmeta xmlns:x="adobe:ns:meta/" x:xmptk="Adobe XMP Core 5.6-c142 79.160924, 2017/07/13-01:06:39        ">
   <rdf:RDF xmlns:rdf="http://www.w3.org/1999/02/22-rdf-syntax-ns#">
      <rdf:Description rdf:about=""/>
   </rdf:RDF>
</x:xmpmeta>
                                                                                                    
                                                                                                    
                                                                                                    
                                                                                                    
                                                                                                    
                                                                                                    
                                                                                                    
                                                                                                    
                                                                                                    
                                                                                                    
                                                                                                    
                                                                                                    
                                                                                                    
                                                                                                    
                                                                                                    
                                                                                                    
                                                                                                    
                                                                                                    
                                                                                                    
                                                                                                    
                           
<?xpacket end="w"?></metadata>
<defs>
    <style>
      .cls-1 {
        fill: #fff;
        fill-rule: evenodd;
      }
    </style>
  </defs>
  <path id="cloudy" class="cls-1" d="M1626.17,471.494l-6.36,2.634,4.39,10.6a63.564,63.564,0,0,1,6.37-2.626l-4.4-10.6h0Zm-25.38,15.343-4.86,4.867,8.12,8.124a65.387,65.387,0,0,1,4.87-4.867l-8.13-8.124h0Zm-17.57,23.888-2.64,6.359,10.61,4.393a66.46,66.46,0,0,1,2.62-6.362l-10.59-4.39h0Zm120.09-23.887-8.12,8.123a65.253,65.253,0,0,1,4.86,4.867l8.13-8.123-4.87-4.867h0Zm-25.38-15.344-4.39,10.6a64.375,64.375,0,0,1,6.36,2.626l4.39-10.6-6.36-2.634h0Zm-22.44-4.463h-6.88v11.483c1.14-.06,2.29-0.093,3.44-0.093s2.3,0.033,3.44.093V467.031h0Zm65.4,43.694-10.6,4.39a61.668,61.668,0,0,1,2.62,6.362l10.61-4.392-2.63-6.36h0Zm7.09,28.8H1716.5q0.09,1.71.09,3.441t-0.09,3.442h11.48v-6.883h0Zm-75.93-53.507a56.971,56.971,0,0,0-54.44,40.21,49.774,49.774,0,0,1,7.23-1.948,50.78,50.78,0,0,1,98,18.686c0,1.677-.09,3.334-0.25,4.969a41.951,41.951,0,0,1,5.47,5.265,56.883,56.883,0,0,0-56.01-67.182h0Zm-37.69,48.14a44.4,44.4,0,0,1,36.03,18.561l3.27,4.58,4.86-2.852a35.6,35.6,0,0,1,53.28,25.964H1519.44a33.962,33.962,0,0,1,47.83-20.6l5.33,2.691,2.86-5.239a44.3,44.3,0,0,1,38.9-23.109m0-6.161a50.426,50.426,0,0,0-44.31,26.319,40.12,40.12,0,0,0-58.03,32.257h206.22c0.01-.47.03-0.938,0.03-1.411a41.753,41.753,0,0,0-62.87-36.028,50.366,50.366,0,0,0-41.04-21.137h0Z" transform="translate(-1512.03 -467.031)"/>
</svg>
