<svg xmlns="http://www.w3.org/2000/svg" width="216" height="130.281" viewBox="0 0 216 130.281">
  <metadata><?xpacket begin="﻿" id="W5M0MpCehiHzreSzNTczkc9d"?>
<x:xmpmeta xmlns:x="adobe:ns:meta/" x:xmptk="Adobe XMP Core 5.6-c142 79.160924, 2017/07/13-01:06:39        ">
   <rdf:RDF xmlns:rdf="http://www.w3.org/1999/02/22-rdf-syntax-ns#">
      <rdf:Description rdf:about=""/>
   </rdf:RDF>
</x:xmpmeta>
                                                                                                    
                                                                                                    
                                                                                                    
                                                                                                    
                                                                                                    
                                                                                                    
                                                                                                    
                                                                                                    
                                                                                                    
                                                                                                    
                                                                                                    
                                                                                                    
                                                                                                    
                                                                                                    
                                                                                                    
                                                                                                    
                                                                                                    
                                                                                                    
                                                                                                    
                                                                                                    
                           
<?xpacket end="w"?></metadata>
<defs>
    <style>
      .cls-1 {
        fill: #fff;
        fill-rule: evenodd;
      }
    </style>
  </defs>
  <path id="rain" class="cls-1" d="M1295.87,541.813H1080l0.3-3.4a43.886,43.886,0,0,1,60.78-36.522,54.336,54.336,0,0,1,88.81-5.262A45.536,45.536,0,0,1,1296,537.251c0,0.411-.01.819-0.02,1.226Zm-208.89-6.257h202.73a39.275,39.275,0,0,0-59.1-32.2l-2.47,1.449-1.66-2.326a48.1,48.1,0,0,0-81.39,4.94l-1.45,2.66-2.7-1.366A37.632,37.632,0,0,0,1086.98,535.556Zm26.01,43.475a8.925,8.925,0,0,1-8.92-8.912c0-3.666,4.36-11.315,6.23-14.434l2.69-4.465,2.68,4.465c1.87,3.119,6.23,10.768,6.23,14.434A8.923,8.923,0,0,1,1112.99,579.031Zm0-15.31c-1.54,2.971-2.62,5.532-2.66,6.409a2.655,2.655,0,0,0,5.31-.011C1115.6,569.248,1114.52,566.689,1112.99,563.721Zm91.25,26.325a12.354,12.354,0,0,1-12.34-12.336c0-5.666,8.04-19.341,9.66-22.025l2.68-4.465,2.68,4.465c1.61,2.684,9.65,16.359,9.65,22.025A12.346,12.346,0,0,1,1204.24,590.046Zm0-26.462c-3.26,5.942-6.08,12.076-6.08,14.126a6.08,6.08,0,0,0,12.16,0C1210.32,575.658,1207.5,569.524,1204.24,563.584Zm55.08,33.072a12.354,12.354,0,0,1-12.34-12.336c0-5.666,8.04-19.341,9.66-22.025l2.68-4.465,2.68,4.465c1.61,2.684,9.65,16.359,9.65,22.025A12.346,12.346,0,0,1,1259.32,596.656Zm0-26.462c-3.26,5.942-6.08,12.076-6.08,14.126a6.08,6.08,0,0,0,12.16,0C1265.4,582.268,1262.58,576.134,1259.32,570.194Zm-98.04,36.137a10.149,10.149,0,0,1-10.14-10.133c0-4.394,5.71-14.23,7.45-17.14l2.69-4.466,2.68,4.466c1.75,2.91,7.45,12.746,7.45,17.14A10.147,10.147,0,0,1,1161.28,606.331Zm0-19.306c-2.15,4.027-3.88,7.892-3.88,9.173a3.875,3.875,0,1,0,7.75,0C1165.15,594.915,1163.42,591.051,1161.28,587.025Z" transform="translate(-1080 -476.063)"/>
</svg>
