<svg xmlns="http://www.w3.org/2000/svg" width="168" height="168" viewBox="0 0 168 168">
  <metadata><?xpacket begin="﻿" id="W5M0MpCehiHzreSzNTczkc9d"?>
<x:xmpmeta xmlns:x="adobe:ns:meta/" x:xmptk="Adobe XMP Core 5.6-c142 79.160924, 2017/07/13-01:06:39        ">
   <rdf:RDF xmlns:rdf="http://www.w3.org/1999/02/22-rdf-syntax-ns#">
      <rdf:Description rdf:about=""/>
   </rdf:RDF>
</x:xmpmeta>
                                                                                                    
                                                                                                    
                                                                                                    
                                                                                                    
                                                                                                    
                                                                                                    
                                                                                                    
                                                                                                    
                                                                                                    
                                                                                                    
                                                                                                    
                                                                                                    
                                                                                                    
                                                                                                    
                                                                                                    
                                                                                                    
                                                                                                    
                                                                                                    
                                                                                                    
                                                                                                    
                           
<?xpacket end="w"?></metadata>
<defs>
    <style>
      .cls-1 {
        fill: #fff;
        fill-rule: evenodd;
      }
    </style>
  </defs>
  <path id="sunny" class="cls-1" d="M739.375,452.544l-7.035,2.913L737.2,467.18a71.063,71.063,0,0,1,7.038-2.906l-4.859-11.73h0ZM711.3,469.516l-5.384,5.384,8.986,8.986a71.8,71.8,0,0,1,5.385-5.384l-8.987-8.986h0Zm-14.59,58.277h-12.7v7.614h12.7c-0.066-1.261-.1-2.53-0.1-3.807s0.037-2.546.1-3.807h0Zm-4.852-31.853-2.914,7.035,11.731,4.859a70.915,70.915,0,0,1,2.905-7.038l-11.722-4.856h0ZM824.7,469.516l-8.986,8.986a71.782,71.782,0,0,1,5.384,5.384l8.986-8.986-5.384-5.384h0Zm-28.075-16.972-4.858,11.73a70.922,70.922,0,0,1,7.038,2.906l4.855-11.722-7.035-2.914h0Zm-24.818-4.937h-7.614v12.7c1.261-.066,2.53-0.1,3.807-0.1s2.546,0.037,3.807.1v-12.7h0Zm72.335,48.333L832.42,500.8a71.162,71.162,0,0,1,2.906,7.038l11.73-4.859-2.914-7.035h0ZM700.675,555.366l-11.731,4.859,2.914,7.035L703.58,562.4a70.915,70.915,0,0,1-2.905-7.038h0Zm134.651,0a71.063,71.063,0,0,1-2.906,7.038l11.722,4.856,2.914-7.035-11.73-4.859h0ZM821.1,579.314a71.97,71.97,0,0,1-5.384,5.384l8.987,8.986,5.384-5.384-8.987-8.986h0Zm30.9-51.521h-12.7q0.1,1.891.1,3.807t-0.1,3.807h12.7v-7.614h0ZM798.8,596.02a70.816,70.816,0,0,1-7.038,2.9l4.859,11.731,7.035-2.914L798.8,596.02h0Zm-83.9-16.707-8.986,8.986,5.384,5.385,8.987-8.987a71.8,71.8,0,0,1-5.385-5.384h0ZM737.2,596.02l-4.856,11.722,7.035,2.914,4.859-11.731a70.816,70.816,0,0,1-7.038-2.9h0Zm34.611,6.87q-1.891.1-3.807,0.1t-3.807-.1v12.7h7.614v-12.7h0ZM768,475.421A56.179,56.179,0,1,1,711.821,531.6,56.243,56.243,0,0,1,768,475.421m0-6.816a62.995,62.995,0,1,0,62.994,63A62.994,62.994,0,0,0,768,468.605h0Z" transform="translate(-684 -447.594)"/>
</svg>
